<svg xmlns="http://www.w3.org/2000/svg" width="42" height="37" viewBox="0 0 42 37" fill="none"><path d="M38.378 8.03954H32.7627V3.80277C32.7627 1.70706 31.0726 0.00976562 28.9859 0.00976562H13.0141C10.9274 0.00976562 9.23729 1.70706 9.23729 3.80277V8.03954H3.62202C1.62233 8.03954 0 9.66881 0 11.6771V19.3214C0 19.6971 0.225771 20.034 0.570879 20.1733L21 28.5399L41.4291 20.1733C41.7742 20.0308 42 19.6939 42 19.3214V11.6771C42 9.66881 40.3777 8.03954 38.378 8.03954ZM11.8175 8.03954V3.80277C11.8175 3.13875 12.3529 2.60106 13.0141 2.60106H28.9859C29.6471 2.60106 30.1825 3.13875 30.1825 3.80277V8.03954H11.8175Z" fill="url(#paint0_linear_10_21618)"/><g filter="url(#filter0_b_10_21618)"><path d="M37.3422 36.6726H4.65688C2.92167 36.6726 1.51221 35.2604 1.51221 33.5145V13.5097C1.51221 11.7671 2.91844 10.3516 4.65688 10.3516H37.3422C39.0774 10.3516 40.4869 11.7638 40.4869 13.5097V33.5177C40.4869 35.2604 39.0774 36.6726 37.3422 36.6726Z" fill="url(#paint1_linear_10_21618)" fill-opacity="0.5"/></g><path d="M37.3422 36.6726H4.65688C2.92167 36.6726 1.51221 35.2604 1.51221 33.5145V13.5097C1.51221 11.7671 2.91844 10.3516 4.65688 10.3516H37.3422C39.0774 10.3516 40.4869 11.7638 40.4869 13.5097V33.5177C40.4869 35.2604 39.0774 36.6726 37.3422 36.6726Z" fill="url(#paint2_linear_10_21618)"/><path d="M37.3425 10.3513C39.0777 10.3513 40.4871 11.7635 40.4871 13.5094V33.5174C40.4871 35.2601 39.0809 36.6756 37.3425 36.6756H4.65715C2.92193 36.6756 1.51247 35.2633 1.51247 33.5174V13.5094C1.51247 11.7667 2.91871 10.3513 4.65715 10.3513H37.3425ZM37.3425 10.0273H4.65715C2.74454 10.0273 1.18994 11.5886 1.18994 13.5094V33.5174C1.18994 35.4382 2.74454 36.9995 4.65715 36.9995H37.3425C39.2551 36.9995 40.8097 35.4382 40.8097 33.5174V13.5094C40.8097 11.5886 39.2551 10.0273 37.3425 10.0273Z" fill="#BAE0F3"/><path d="M37.3422 10.3516H4.65688C2.92167 10.3516 1.51221 11.7638 1.51221 13.5097V14.3C1.51221 12.5574 2.91844 11.1419 4.65688 11.1419H37.3422C39.0774 11.1419 40.4869 12.5542 40.4869 14.3V13.5097C40.4869 11.7638 39.0774 10.3516 37.3422 10.3516Z" fill="white"/><path d="M22.0097 30.1794H19.9906C19.6455 30.1794 19.3682 29.9008 19.3682 29.5542V27.5265C19.3682 27.1799 19.6455 26.9014 19.9906 26.9014H22.0097C22.3548 26.9014 22.6322 27.1799 22.6322 27.5265V29.5542C22.6322 29.9008 22.3548 30.1794 22.0097 30.1794Z" fill="white"/><path d="M2.99951 21.167L21 28.5392L38.9263 21.1961" stroke="white" stroke-width="0.675395" stroke-miterlimit="10" stroke-linecap="round" stroke-linejoin="round"/><defs><filter id="filter0_b_10_21618" x="-2.54016" y="6.29919" width="47.0793" height="34.426" filterUnits="userSpaceOnUse" color-interpolation-filters="sRGB"><feGaussianBlur stdDeviation="2.02618"/></filter><linearGradient id="paint0_linear_10_21618" x1="0" y1="14.2748" x2="42" y2="14.2748" gradientUnits="userSpaceOnUse"><stop stop-color="#38C9F7"/><stop offset="1" stop-color="#266FF2"/></linearGradient><linearGradient id="paint1_linear_10_21618" x1="20.9996" y1="10.3515" x2="20.9996" y2="36.6729" gradientUnits="userSpaceOnUse"><stop stop-color="white" stop-opacity="0.9"/><stop offset="0.0358" stop-color="white" stop-opacity="0.8492"/><stop offset="0.2822" stop-color="white" stop-opacity="0.5"/><stop offset="0.6461" stop-color="#FAFAFA" stop-opacity="0.3986"/><stop offset="1" stop-color="#EFEFEF" stop-opacity="0.3"/></linearGradient><linearGradient id="paint2_linear_10_21618" x1="20.9996" y1="10.3515" x2="20.9996" y2="36.6729" gradientUnits="userSpaceOnUse"><stop stop-color="white" stop-opacity="0.9"/><stop offset="0.0358" stop-color="white" stop-opacity="0.8492"/><stop offset="0.2822" stop-color="white" stop-opacity="0.5"/><stop offset="0.6461" stop-color="#FAFAFA" stop-opacity="0.3986"/><stop offset="1" stop-color="#EFEFEF" stop-opacity="0.3"/></linearGradient></defs></svg>