<svg xmlns="http://www.w3.org/2000/svg" width="44" height="44" viewBox="0 0 44 44" fill="none"><path d="M8.19482 3.58095C11.4781 1.87252 15.2037 0.90332 19.1586 0.90332C19.2897 0.90332 19.4175 0.909891 19.5453 0.913176V24.818L8.19482 3.58095ZM21.4982 1.01831V24.818H43.0096C43.0096 12.4023 33.5728 2.19778 21.4982 1.01831Z" fill="url(#paint0_linear_10_21652)"/><g filter="url(#filter0_b_10_21652)"><circle cx="18.7605" cy="24.9719" r="18.1204" fill="white" fill-opacity="0.2"/></g><path d="M19.1593 42.9601C29.1522 42.9601 37.2531 34.8376 37.2531 24.818C37.2531 14.7983 29.1522 6.67578 19.1593 6.67578C9.16632 6.67578 1.06543 14.7983 1.06543 24.818C1.06543 34.8376 9.16632 42.9601 19.1593 42.9601Z" fill="url(#paint1_linear_10_21652)"/><path d="M19.1593 38.8278C26.8757 38.8278 33.1311 32.5557 33.1311 24.8187C33.1311 17.0817 26.8757 10.8096 19.1593 10.8096C11.4429 10.8096 5.1875 17.0817 5.1875 24.8187C5.1875 32.5557 11.4429 38.8278 19.1593 38.8278Z" stroke="white" stroke-width="0.696937" stroke-miterlimit="10" stroke-linecap="round" stroke-linejoin="round"/><path d="M19.1593 6.67229C29.1532 6.67229 37.2532 14.7939 37.2532 24.8145C37.2532 34.8351 29.1532 42.9567 19.1593 42.9567C9.16542 42.9567 1.06546 34.8351 1.06546 24.8145C1.06546 14.7939 9.16542 6.67229 19.1593 6.67229ZM19.1593 6.34375C9.00159 6.34375 0.737793 14.6296 0.737793 24.8145C0.737793 34.9993 9.00159 43.2852 19.1593 43.2852C29.317 43.2852 37.5808 34.9993 37.5808 24.8145C37.5808 14.6296 29.317 6.34375 19.1593 6.34375Z" fill="#C1E1F0"/><path d="M19.1593 7.44457C29.0254 7.44457 37.0402 15.3625 37.2433 25.2024C37.2466 25.0742 37.2531 24.9461 37.2531 24.818C37.2531 14.7974 29.1532 6.67578 19.1593 6.67578C9.16539 6.67578 1.06543 14.7974 1.06543 24.818C1.06543 24.9461 1.07198 25.0742 1.07526 25.2024C1.27841 15.3592 9.29646 7.44457 19.1593 7.44457Z" fill="white"/><defs><filter id="filter0_b_10_21652" x="-2.14761" y="4.06382" width="41.8162" height="41.8157" filterUnits="userSpaceOnUse" color-interpolation-filters="sRGB"><feGaussianBlur stdDeviation="1.39387"/></filter><linearGradient id="paint0_linear_10_21652" x1="8.19482" y1="12.8607" x2="43.0096" y2="12.8607" gradientUnits="userSpaceOnUse"><stop stop-color="#38C9F7"/><stop offset="1" stop-color="#266FF2"/></linearGradient><linearGradient id="paint1_linear_10_21652" x1="19.1598" y1="6.67374" x2="19.1598" y2="42.9602" gradientUnits="userSpaceOnUse"><stop stop-color="white" stop-opacity="0.9"/><stop offset="0.0358" stop-color="white" stop-opacity="0.8492"/><stop offset="0.2822" stop-color="white" stop-opacity="0.5"/><stop offset="0.6461" stop-color="#FAFAFA" stop-opacity="0.3986"/><stop offset="1" stop-color="#EFEFEF" stop-opacity="0.3"/></linearGradient></defs></svg>