<svg xmlns="http://www.w3.org/2000/svg" width="45" height="43" viewBox="0 0 45 43" fill="none"><path d="M20.6499 3.10768C16.7436 6.99084 16.7436 13.285 20.6499 17.1681C24.0918 20.5897 29.4226 20.9952 33.31 18.3814L41.2355 26.26C41.9823 27.0024 43.1934 27.0024 43.9401 26.26C44.6868 25.5177 44.6868 24.3138 43.9401 23.5715L36.0146 15.6929C38.6439 11.8253 38.236 6.52923 34.7941 3.10768C30.8878 -0.775477 24.5562 -0.775477 20.6499 3.10768ZM32.8017 15.1876C29.9967 17.976 25.4473 17.976 22.6423 15.1876C19.8373 12.3992 19.8373 7.87663 22.6423 5.08825C25.4473 2.29986 29.9967 2.29986 32.8017 5.08825C35.6067 7.87663 35.6067 12.3961 32.8017 15.1876Z" fill="url(#paint0_linear_10_21637)"/><g filter="url(#filter0_b_10_21637)"><path d="M25.1495 8.98047L2.45541 8.98359C1.46707 8.98359 0.666992 9.77893 0.666992 10.7614L0.67013 40.2828C0.67013 41.2653 1.47021 42.0606 2.45854 42.0606L25.1526 42.0575C26.1409 42.0575 26.941 41.2621 26.941 40.2797L26.9379 10.7583C26.9379 9.77581 26.1378 8.98047 25.1495 8.98047Z" fill="white" fill-opacity="0.4"/></g><path d="M25.1497 8.98085C26.1381 8.98085 26.9381 9.77619 26.9381 10.7587L26.9413 40.28C26.9413 41.2625 26.1412 42.0579 25.1529 42.0579L2.45883 42.061C1.47049 42.061 0.670411 41.2656 0.670411 40.2831L0.667273 10.7618C0.667273 9.77931 1.46735 8.98397 2.45569 8.98397L25.1497 8.98085ZM25.1497 8.66895L2.45569 8.67206C1.89406 8.67206 1.36695 8.89039 0.968479 9.28339C0.573145 9.6795 0.353516 10.2035 0.353516 10.7618L0.356654 40.2831C0.356654 41.4372 1.30106 42.3729 2.45883 42.3729L25.1529 42.3698C26.3138 42.3698 27.255 41.4309 27.255 40.28L27.2519 10.7587C27.2519 9.60776 26.3106 8.66895 25.1497 8.66895Z" fill="#CBE3FA"/><path d="M21.7359 17.0399L5.87544 17.043C5.46442 17.043 5.13184 16.7124 5.13184 16.3038C5.13184 15.8953 5.46442 15.5646 5.87544 15.5646L21.7359 15.5615C22.1469 15.5615 22.4795 15.8921 22.4795 16.3007C22.4763 16.7093 22.1437 17.0399 21.7359 17.0399Z" fill="white"/><path d="M21.7359 23.1845L5.87544 23.1876C5.46442 23.1876 5.13184 22.857 5.13184 22.4484C5.13184 22.0398 5.46442 21.7092 5.87544 21.7092L21.7359 21.7061C22.1469 21.7061 22.4795 22.0367 22.4795 22.4453C22.4763 22.8538 22.1469 23.1845 21.7359 23.1845Z" fill="white"/><path d="M21.7359 29.3319L5.87544 29.335C5.46442 29.335 5.13184 29.0044 5.13184 28.5958C5.13184 28.1873 5.46442 27.8566 5.87544 27.8566L21.7359 27.8535C22.1469 27.8535 22.4795 28.1841 22.4795 28.5927C22.4795 29.0013 22.1469 29.3319 21.7359 29.3319Z" fill="white"/><path d="M21.7359 35.4765L5.87544 35.4796C5.46442 35.4796 5.13184 35.149 5.13184 34.7404C5.13184 34.3318 5.46442 34.0012 5.87544 34.0012L21.7359 33.998C22.1469 33.998 22.4795 34.3287 22.4795 34.7372C22.4795 35.1458 22.1469 35.4765 21.7359 35.4765Z" fill="white"/><defs><filter id="filter0_b_10_21637" x="-2.09407" y="6.21941" width="31.7961" height="38.6022" filterUnits="userSpaceOnUse" color-interpolation-filters="sRGB"><feGaussianBlur stdDeviation="1.38053"/></filter><linearGradient id="paint0_linear_10_21637" x1="17.7202" y1="13.506" x2="44.5002" y2="13.506" gradientUnits="userSpaceOnUse"><stop stop-color="#38C9F7"/><stop offset="1" stop-color="#266FF2"/></linearGradient></defs></svg>