<svg xmlns="http://www.w3.org/2000/svg" width="47" height="34" viewBox="0 0 47 34" fill="none"><path d="M44.7876 2.52016L34.7295 4.52436C33.7285 4.7251 33.3937 5.98689 34.1684 6.65602L37.4457 9.48548L30.4066 17.7795L18.0883 9.4568C17.2913 8.91831 16.2138 9.05533 15.5794 9.77862L4.03255 22.9254C3.74882 23.2472 3.7807 23.7411 4.10269 24.0215L5.80825 25.5191C6.13023 25.8027 6.62437 25.7708 6.9081 25.449L17.3423 13.5704L29.683 21.909C30.4927 22.4539 31.583 22.3073 32.2142 21.5617L40.3403 11.9868L43.7068 14.8927C44.4815 15.5586 45.6834 15.0456 45.7344 14.026L46.2572 3.78832C46.2923 2.98855 45.5718 2.36403 44.7876 2.52016Z" fill="url(#paint0_linear_10_21598)"/><path d="M29.8585 0.318633C31.0189 0.318633 31.9626 1.2586 31.9626 2.42161V33.3386H24.0883V2.41843C24.0883 1.2586 25.0288 0.315446 26.1924 0.315446H29.8585M17.9738 6.6913C19.1342 6.6913 20.0778 7.63127 20.0778 8.79428V33.3386H12.2035V8.79109C12.2035 7.63126 13.144 6.68811 14.3076 6.68811H17.9738M6.08902 13.064C7.24944 13.064 8.19308 14.0039 8.19308 15.1669V33.3386H0.318797V15.1669C0.318797 14.0071 1.25925 13.064 2.42286 13.064H6.08902ZM29.8585 0H26.1924C24.8566 0 23.7695 1.08654 23.7695 2.42161V33.3386C23.7695 33.5138 23.913 33.6572 24.0883 33.6572H31.9626C32.1379 33.6572 32.2814 33.5138 32.2814 33.3386V2.41843C32.2814 1.08654 31.1943 0 29.8585 0ZM17.9738 6.37266H14.3076C12.9718 6.37266 11.8847 7.4592 11.8847 8.79428V33.3386C11.8847 33.5138 12.0282 33.6572 12.2035 33.6572H20.0778C20.2532 33.6572 20.3966 33.5138 20.3966 33.3386V8.79109C20.3966 7.4592 19.3095 6.37266 17.9738 6.37266ZM6.08902 12.7453H2.42286C1.0871 12.7453 0 13.8319 0 15.1669V33.3386C0 33.5138 0.143459 33.6572 0.318797 33.6572H8.19308C8.36842 33.6572 8.51188 33.5138 8.51188 33.3386V15.1669C8.51188 13.8319 7.42478 12.7453 6.08902 12.7453Z" fill="#CEECF5"/><path d="M8.19313 15.1676V33.3393H0.318848V15.1676C0.318848 14.0078 1.2593 13.0647 2.42291 13.0647H6.08907C7.24949 13.0647 8.19313 14.0046 8.19313 15.1676ZM17.9738 6.692H14.3077C13.1472 6.692 12.2036 7.63197 12.2036 8.79498V33.3393H20.0779V8.79179C20.0779 7.63197 19.1374 6.692 17.9738 6.692ZM29.8586 0.319336H26.1924C25.032 0.319336 24.0883 1.2593 24.0883 2.42231V33.3393H31.9626V2.41913C31.9626 1.2593 31.0222 0.319336 29.8586 0.319336Z" fill="url(#paint1_linear_10_21598)"/><g filter="url(#filter0_b_10_21598)"><path d="M24.207 2.89289C24.207 1.52064 25.3195 0.408203 26.6917 0.408203H29.7976C31.1699 0.408203 32.2823 1.52064 32.2823 2.8929V33.3304H24.207V2.89289Z" fill="url(#paint2_linear_10_21598)" fill-opacity="0.3"/></g><g filter="url(#filter1_b_10_21598)"><path d="M12.0942 9.10481C12.0942 7.73255 13.2067 6.62012 14.5789 6.62012H17.6848C19.0571 6.62012 20.1695 7.73255 20.1695 9.10481V33.3306H12.0942V9.10481Z" fill="url(#paint3_linear_10_21598)" fill-opacity="0.3"/></g><g filter="url(#filter2_b_10_21598)"><path d="M0.291504 15.3167C0.291504 13.9445 1.40394 12.832 2.7762 12.832H5.88206C7.25432 12.832 8.36676 13.9445 8.36676 15.3167V33.3308H0.291504V15.3167Z" fill="url(#paint4_linear_10_21598)" fill-opacity="0.3"/></g><path d="M8.19313 15.1676V33.3393H0.318848V15.1676C0.318848 14.0078 1.2593 13.0647 2.42291 13.0647H6.08907C7.24949 13.0647 8.19313 14.0046 8.19313 15.1676ZM17.9738 6.692H14.3077C13.1472 6.692 12.2036 7.63197 12.2036 8.79498V33.3393H20.0779V8.79179C20.0779 7.63197 19.1374 6.692 17.9738 6.692ZM29.8586 0.319336H26.1924C25.032 0.319336 24.0883 1.2593 24.0883 2.42231V33.3393H31.9626V2.41913C31.9626 1.2593 31.0222 0.319336 29.8586 0.319336Z" fill="url(#paint5_linear_10_21598)"/><path d="M8.19313 15.1676V15.738C8.19313 14.5782 7.25268 13.635 6.08907 13.635H2.42291C1.26249 13.635 0.318848 14.575 0.318848 15.738V15.1676C0.318848 14.0078 1.2593 13.0647 2.42291 13.0647H6.08907C7.24949 13.0647 8.19313 14.0046 8.19313 15.1676ZM29.8586 0.319336H26.1924C25.032 0.319336 24.0883 1.2593 24.0883 2.42232V2.99267C24.0883 1.83284 25.0288 0.88969 26.1924 0.88969H29.8586C31.019 0.88969 31.9626 1.82966 31.9626 2.99267V2.42232C31.9626 1.2593 31.0222 0.319336 29.8586 0.319336ZM17.9738 6.692H14.3077C13.1472 6.692 12.2036 7.63197 12.2036 8.79498V9.36533C12.2036 8.20551 13.144 7.26236 14.3077 7.26236H17.9738C19.1342 7.26236 20.0779 8.20232 20.0779 9.36533V8.79498C20.0779 7.63197 19.1374 6.692 17.9738 6.692Z" fill="white"/><defs><filter id="filter0_b_10_21598" x="21.7223" y="-2.07649" width="13.0446" height="37.8913" filterUnits="userSpaceOnUse" color-interpolation-filters="sRGB"><feGaussianBlur stdDeviation="1.24235"/></filter><filter id="filter1_b_10_21598" x="9.60954" y="4.13542" width="13.0446" height="31.6803" filterUnits="userSpaceOnUse" color-interpolation-filters="sRGB"><feGaussianBlur stdDeviation="1.24235"/></filter><filter id="filter2_b_10_21598" x="-2.19319" y="10.3473" width="13.0446" height="25.4684" filterUnits="userSpaceOnUse" color-interpolation-filters="sRGB"><feGaussianBlur stdDeviation="1.24235"/></filter><linearGradient id="paint0_linear_10_21598" x1="3.83887" y1="14.1044" x2="46.2584" y2="14.1044" gradientUnits="userSpaceOnUse"><stop stop-color="#38C9F7"/><stop offset="1" stop-color="#266FF2"/></linearGradient><linearGradient id="paint1_linear_10_21598" x1="16.1406" y1="0.318507" x2="16.1406" y2="33.3364" gradientUnits="userSpaceOnUse"><stop stop-color="white" stop-opacity="0.9"/><stop offset="0.0358" stop-color="white" stop-opacity="0.8492"/><stop offset="0.2822" stop-color="white" stop-opacity="0.5"/><stop offset="0.6461" stop-color="#FAFAFA" stop-opacity="0.3986"/><stop offset="1" stop-color="#EFEFEF" stop-opacity="0.3"/></linearGradient><linearGradient id="paint2_linear_10_21598" x1="28.2447" y1="0.408203" x2="28.2447" y2="33.3304" gradientUnits="userSpaceOnUse"><stop stop-color="#A8C3D1" stop-opacity="0.34"/><stop offset="1" stop-color="#D2EFFF" stop-opacity="0.24"/></linearGradient><linearGradient id="paint3_linear_10_21598" x1="16.1319" y1="6.62012" x2="16.1319" y2="33.3306" gradientUnits="userSpaceOnUse"><stop stop-color="#A8C3D1" stop-opacity="0.34"/><stop offset="1" stop-color="#D2EFFF" stop-opacity="0.24"/></linearGradient><linearGradient id="paint4_linear_10_21598" x1="4.32913" y1="12.832" x2="4.32913" y2="33.3308" gradientUnits="userSpaceOnUse"><stop stop-color="#A8C3D1" stop-opacity="0.34"/><stop offset="1" stop-color="#D2EFFF" stop-opacity="0.24"/></linearGradient><linearGradient id="paint5_linear_10_21598" x1="16.1406" y1="0.318507" x2="16.1406" y2="33.3364" gradientUnits="userSpaceOnUse"><stop stop-color="white" stop-opacity="0.9"/><stop offset="0.0358" stop-color="white" stop-opacity="0.8492"/><stop offset="0.2822" stop-color="white" stop-opacity="0.5"/><stop offset="0.6461" stop-color="#FAFAFA" stop-opacity="0.3986"/><stop offset="1" stop-color="#EFEFEF" stop-opacity="0.3"/></linearGradient></defs></svg>